<mxfile host="app.diagrams.net" modified="2023-11-15T14:53:16.885Z" agent="Mozilla/5.0 (X11; CrOS x86_64 14541.0.0) AppleWebKit/537.36 (KHTML, like Gecko) Chrome/118.0.0.0 Safari/537.36" version="22.1.1" etag="VoBzvtftM-l1x_8du05U" type="github">
  <diagram name="Page-1" id="DW8NhtuGMJgZI7TiPML9">
    <mxGraphModel>
      <root>
        <mxCell id="0" />
        <mxCell id="1" parent="0" />
      </root>
    </mxGraphModel>
  </diagram>
</mxfile>
